<?xml version="1.0" standalone="no"?>
<!DOCTYPE svg PUBLIC "-//W3C//DTD SVG 20010904//EN"
 "http://www.w3.org/TR/2001/REC-SVG-20010904/DTD/svg10.dtd">
<svg version="1.0" xmlns="http://www.w3.org/2000/svg"
 width="840.000000pt" height="840.000000pt" viewBox="0 0 840.000000 840.000000"
 preserveAspectRatio="xMidYMid meet">
<metadata>
Created by potrace 1.14, written by Peter Selinger 2001-2017
</metadata>
<g transform="translate(0.000000,840.000000) scale(0.100000,-0.100000)"
fill="#000000" stroke="none">
<path d="M3290 8371 c0 -3 -24 -8 -53 -10 -84 -5 -101 -7 -127 -15 -14 -3 -38
-8 -55 -11 -16 -2 -49 -8 -72 -13 -24 -5 -43 -7 -43 -4 0 2 -6 -1 -14 -7 -8
-7 -30 -13 -50 -14 -20 -1 -36 -5 -36 -9 0 -5 -8 -8 -19 -8 -10 0 -34 -6 -52
-13 -19 -8 -41 -13 -49 -12 -8 0 -18 -3 -21 -7 -3 -5 -14 -10 -25 -12 -10 -2
-32 -10 -49 -17 -16 -6 -38 -14 -48 -16 -10 -2 -28 -8 -40 -15 -12 -7 -26 -12
-32 -13 -5 0 -28 -9 -50 -19 -22 -11 -44 -18 -48 -17 -4 0 -17 -8 -29 -19 -17
-15 -24 -17 -30 -8 -5 10 -8 8 -8 -4 0 -12 -6 -16 -20 -13 -11 2 -18 0 -15 -6
5 -8 -2 -10 -30 -9 -3 0 -15 -9 -27 -20 -12 -11 -29 -20 -39 -20 -9 0 -28 -9
-42 -20 -14 -11 -35 -20 -46 -20 -12 0 -20 -6 -18 -12 1 -7 -6 -12 -15 -10
-10 2 -18 -2 -18 -8 0 -5 -9 -10 -20 -10 -11 0 -27 -11 -35 -24 -11 -16 -22
-22 -36 -19 -13 4 -19 1 -17 -8 2 -9 -5 -13 -20 -11 -14 2 -21 -1 -20 -9 2 -7
-1 -14 -7 -14 -21 -3 -54 -20 -57 -30 -2 -5 -6 -9 -10 -8 -5 2 -8 -2 -8 -7 0
-6 -9 -10 -21 -10 -11 0 -17 -4 -14 -10 6 -9 -8 -14 -28 -11 -4 1 -10 -6 -13
-14 -3 -8 -10 -12 -15 -9 -5 3 -9 -2 -9 -10 0 -10 -7 -13 -20 -11 -11 2 -18 0
-15 -6 4 -5 -1 -9 -9 -9 -9 0 -15 -6 -13 -12 1 -7 -4 -12 -10 -11 -7 2 -13 -2
-13 -7 0 -6 -9 -10 -21 -10 -11 0 -18 -3 -16 -7 2 -5 -4 -16 -15 -25 -10 -10
-18 -15 -18 -12 0 3 -7 -2 -16 -10 -8 -9 -20 -13 -26 -10 -7 4 -8 2 -4 -4 4
-7 1 -12 -8 -12 -9 0 -15 -6 -14 -12 2 -7 -3 -12 -10 -10 -6 1 -11 -3 -10 -10
2 -7 -4 -13 -12 -13 -25 -2 -50 -17 -44 -26 3 -5 -2 -9 -10 -9 -9 0 -15 -6
-14 -12 2 -7 -3 -12 -10 -10 -6 1 -11 -3 -10 -10 2 -7 -6 -12 -17 -12 -11 -1
-24 -9 -30 -20 -5 -10 -14 -19 -20 -19 -12 -1 -34 -20 -31 -27 2 -3 -5 -13
-16 -22 -10 -10 -18 -16 -18 -13 0 3 -6 0 -14 -7 -8 -7 -12 -16 -9 -20 4 -7
-20 -12 -40 -9 -4 0 -6 -2 -6 -6 3 -21 -2 -33 -15 -33 -8 0 -18 -10 -21 -21
-6 -17 -9 -19 -16 -8 -7 11 -9 11 -9 -2 0 -9 -63 -80 -140 -158 -77 -78 -140
-146 -140 -151 0 -5 -9 -14 -20 -20 -11 -6 -20 -15 -20 -21 0 -5 -22 -32 -50
-60 -27 -27 -50 -55 -50 -61 0 -6 -9 -19 -21 -29 -11 -9 -20 -21 -20 -26 0 -4
-9 -18 -19 -31 -11 -12 -20 -27 -20 -32 0 -6 -4 -10 -10 -10 -5 0 -10 -7 -10
-15 0 -8 -4 -15 -9 -15 -5 0 -14 -13 -21 -30 -7 -16 -16 -30 -21 -30 -5 0 -9
-7 -9 -15 0 -9 -9 -25 -20 -37 -11 -12 -20 -28 -20 -35 0 -7 -4 -13 -8 -13 -4
0 -28 -40 -52 -90 -24 -49 -48 -90 -52 -90 -4 0 -8 -7 -8 -16 0 -8 -14 -43
-31 -77 -17 -34 -35 -70 -40 -79 -5 -10 -9 -25 -9 -33 0 -8 -4 -15 -8 -15 -4
0 -14 -21 -21 -47 -15 -50 -20 -62 -39 -100 -7 -13 -12 -31 -12 -41 0 -10 -3
-22 -7 -26 -11 -11 -33 -79 -33 -103 0 -13 -4 -23 -10 -23 -5 0 -10 -15 -10
-34 0 -19 -4 -37 -8 -40 -4 -2 -9 -19 -10 -38 -2 -18 -7 -37 -12 -42 -6 -6
-10 -28 -10 -51 0 -23 -4 -45 -9 -50 -5 -6 -11 -30 -14 -55 -3 -25 -11 -90
-19 -145 -21 -157 -17 -587 8 -1085 3 -63 8 -151 10 -195 2 -44 6 -98 10 -120
3 -22 8 -71 10 -110 3 -38 7 -81 10 -95 3 -14 7 -54 10 -90 2 -36 7 -72 11
-80 3 -8 8 -35 10 -60 2 -25 6 -56 10 -70 3 -14 7 -36 9 -50 3 -26 14 -80 39
-195 9 -38 18 -81 21 -95 3 -14 7 -33 10 -42 3 -9 7 -25 9 -35 2 -10 11 -45
20 -78 9 -33 18 -68 20 -78 2 -9 7 -22 10 -27 4 -6 9 -22 11 -37 3 -15 8 -31
12 -37 3 -6 7 -17 8 -24 2 -8 6 -21 10 -30 4 -9 8 -19 9 -22 4 -19 31 -91 43
-120 9 -19 17 -39 18 -45 1 -5 14 -36 28 -68 14 -31 25 -59 23 -61 -1 -2 6
-12 15 -22 9 -11 17 -22 17 -27 1 -24 155 -316 174 -328 5 -3 8 -9 8 -13 0 -3
15 -30 34 -60 19 -30 35 -60 35 -65 0 -6 7 -14 17 -19 10 -6 14 -16 10 -26 -4
-9 -3 -15 2 -11 5 3 31 -25 57 -62 27 -38 54 -74 61 -81 7 -7 13 -19 13 -26 0
-6 9 -18 19 -26 11 -7 18 -17 15 -22 -3 -4 0 -8 6 -8 6 0 14 -8 17 -17 4 -10
16 -27 27 -38 12 -11 30 -33 41 -49 11 -16 26 -34 33 -40 7 -6 21 -20 30 -30
9 -10 25 -26 34 -34 9 -9 15 -19 12 -23 -2 -5 5 -13 16 -19 11 -6 18 -15 15
-19 -3 -5 2 -12 11 -15 9 -4 14 -9 11 -12 -3 -3 5 -16 19 -29 13 -12 24 -25
24 -28 0 -6 22 -31 75 -88 14 -14 25 -29 25 -32 0 -8 203 -211 212 -212 3 0
20 -15 37 -32 17 -18 31 -30 31 -26 0 4 10 -2 22 -14 46 -44 65 -60 81 -66 9
-3 17 -11 17 -17 0 -5 7 -10 15 -10 9 0 18 -7 21 -15 4 -8 12 -15 20 -15 8 0
14 -4 14 -10 0 -5 5 -10 11 -10 12 0 101 -59 111 -74 5 -7 8 -7 8 -1 0 7 3 7
8 0 4 -6 32 -23 62 -39 30 -16 62 -34 70 -41 20 -15 281 -141 310 -150 3 -1
22 -9 43 -18 20 -9 40 -16 42 -16 3 0 18 -7 33 -15 25 -13 225 -86 247 -90 6
-1 16 -5 23 -9 6 -5 12 -5 12 -1 0 3 7 1 15 -6 8 -7 15 -10 15 -7 0 4 19 -1
43 -9 23 -9 51 -18 62 -20 11 -3 27 -7 35 -9 8 -2 15 -4 15 -5 0 -2 26 -8 60
-15 11 -2 30 -6 43 -9 21 -6 31 -8 92 -21 42 -9 69 -15 92 -20 12 -2 40 -7 62
-11 22 -3 43 -7 46 -9 3 -2 34 -6 69 -10 34 -4 71 -8 81 -10 10 -2 51 -7 91
-10 40 -4 82 -9 93 -12 12 -3 177 -6 369 -8 253 -2 347 0 347 9 0 6 5 4 10 -4
5 -8 10 -10 10 -5 0 6 8 12 18 13 9 1 26 3 37 5 11 2 23 -1 27 -7 5 -8 8 -7 8
2 0 6 7 12 15 12 8 0 15 -6 15 -12 1 -9 5 -8 13 3 7 8 26 15 45 14 17 0 32 4
32 9 0 6 5 5 12 -2 7 -7 17 -12 23 -12 5 0 3 5 -5 11 -12 8 -9 10 13 6 15 -2
30 0 33 4 3 5 17 6 31 3 18 -5 24 -3 19 5 -8 12 11 15 74 13 26 -1 31 1 20 8
-16 10 -16 10 50 14 14 0 28 5 31 9 3 4 19 10 35 13 16 2 41 9 56 15 15 6 32
8 39 3 8 -4 10 -3 5 4 -4 7 -1 13 8 13 17 2 35 5 39 9 1 1 11 3 22 5 10 2 28
8 40 13 27 13 87 36 100 38 6 1 30 11 55 22 25 12 48 21 52 22 4 0 33 14 64
30 31 17 62 30 70 30 8 0 14 5 14 10 0 6 9 10 20 10 11 0 20 5 20 11 0 5 4 8
9 5 5 -3 24 4 42 17 19 12 48 29 64 37 17 8 33 19 37 25 4 5 8 6 8 2 0 -5 13
1 29 12 16 12 34 21 40 21 6 0 11 5 11 10 0 6 6 10 13 10 7 0 36 16 66 35 29
19 57 35 62 35 5 0 9 4 9 9 0 5 11 12 25 15 14 4 25 11 25 16 0 6 5 10 10 10
14 0 101 56 345 219 431 290 769 576 1012 861 90 105 251 314 260 337 3 7 10
10 17 6 6 -3 8 -3 4 2 -11 12 21 67 34 59 7 -4 8 -3 4 4 -9 14 47 105 59 95 4
-5 5 -2 1 5 -4 7 8 38 29 72 161 265 347 778 425 1170 59 299 74 445 74 765 1
295 -5 485 -14 485 -7 0 -34 181 -34 228 0 17 -3 32 -7 32 -4 0 -10 17 -13 38
-4 20 -18 83 -32 139 -14 56 -26 111 -27 122 -1 12 -5 21 -9 21 -4 0 -8 7 -8
15 0 9 -9 44 -21 79 -11 35 -21 73 -22 85 -1 12 -5 21 -9 21 -4 0 -8 8 -8 18
0 10 -4 22 -10 28 -5 5 -10 24 -12 41 -1 17 -5 30 -9 28 -7 -5 -32 66 -32 90
0 8 -4 15 -9 15 -4 0 -8 6 -8 14 0 7 -7 26 -14 42 -8 15 -13 31 -10 36 3 4 0
8 -5 8 -6 0 -11 9 -11 20 0 11 -4 20 -10 20 -5 0 -10 9 -10 20 0 11 -3 20 -8
20 -4 0 -13 15 -20 33 -33 79 -192 381 -203 385 -5 2 -9 12 -9 22 0 10 -4 20
-9 22 -5 2 -11 10 -13 18 -2 8 -11 22 -20 31 -10 9 -18 22 -18 28 0 7 -7 19
-15 28 -8 8 -13 19 -10 24 4 5 2 9 -3 9 -6 0 -15 12 -21 28 -11 26 -55 90
-113 163 -37 46 -84 110 -138 184 -25 34 -55 73 -67 86 -57 61 -73 81 -73 92
-1 15 -75 97 -89 97 -6 0 -15 10 -22 21 -6 12 -31 41 -55 66 -24 24 -44 50
-44 58 0 8 -4 15 -10 15 -15 0 -50 33 -44 42 3 5 0 7 -8 6 -7 -2 -12 4 -10 12
2 8 1 12 -3 8 -9 -9 -45 23 -39 34 3 5 1 7 -4 6 -11 -4 -117 104 -114 115 1 5
-1 6 -6 3 -11 -6 -43 30 -34 39 4 4 0 5 -8 3 -8 -2 -14 3 -12 10 1 8 -1 11 -6
8 -5 -3 -29 14 -53 37 -24 23 -47 42 -51 42 -3 0 -21 14 -40 30 -18 17 -45 38
-59 47 -14 9 -32 23 -40 30 -50 47 -325 208 -356 208 -5 0 -14 5 -21 12 -6 6
-17 13 -24 14 -7 2 -56 19 -108 38 -163 59 -496 125 -512 102 -6 -8 -8 -8 -8
0 0 12 4 12 -115 17 -49 3 -97 8 -106 11 -9 4 -71 8 -138 9 -66 1 -121 5 -121
9 0 4 -20 6 -45 5 -25 -1 -45 0 -45 4 0 4 -17 7 -37 7 -21 0 -40 1 -43 2 -3 2
-21 3 -40 5 -19 1 -46 5 -60 8 -25 6 -92 16 -140 21 -14 2 -41 8 -60 14 -19 6
-51 12 -70 13 -19 2 -41 7 -47 12 -7 5 -22 7 -33 4 -11 -3 -20 -1 -20 5 0 5
-4 6 -10 3 -5 -3 -10 0 -10 7 0 10 -2 10 -9 -1 -5 -7 -11 -9 -14 -4 -3 5 -20
10 -38 11 -18 1 -38 7 -44 12 -6 5 -20 9 -30 9 -11 -1 -33 2 -50 5 -16 3 -52
11 -80 16 -57 12 -116 19 -196 23 -30 2 -59 6 -65 9 -13 8 -504 7 -504 -1z"/>
</g>
</svg>
