<?xml version="1.0" encoding="UTF-8" standalone="no"?>
<!DOCTYPE svg PUBLIC "-//W3C//DTD SVG 1.1//EN" "http://www.w3.org/Graphics/SVG/1.1/DTD/svg11.dtd">
<svg width="100%" height="100%" viewBox="0 0 64 64" version="1.1" xmlns="http://www.w3.org/2000/svg" xmlns:xlink="http://www.w3.org/1999/xlink" xml:space="preserve" xmlns:serif="http://www.serif.com/" style="fill-rule:evenodd;clip-rule:evenodd;stroke-linejoin:round;stroke-miterlimit:2;">
    <g transform="matrix(1,0,0,1,0,6.44249)">
        <path d="M48.012,0C47.159,0.002 46.342,0.344 45.742,0.951C45.143,1.558 44.81,2.379 44.819,3.232C44.827,4.086 45.175,4.9 45.787,5.495L53.033,12.735L28.807,12.735C27.95,12.723 27.125,13.056 26.515,13.658C25.906,14.26 25.563,15.082 25.564,15.939C25.565,16.795 25.909,17.616 26.52,18.217C27.131,18.818 27.957,19.149 28.813,19.136L53.101,19.136L45.786,26.444C45.166,27.04 44.811,27.86 44.803,28.721C44.794,29.581 45.132,30.409 45.74,31.017C46.348,31.625 47.176,31.963 48.036,31.954C48.896,31.946 49.717,31.591 50.313,30.971L63.06,18.236C63.661,17.635 64,16.82 64,15.97C64,15.12 63.661,14.304 63.06,13.703L50.313,0.969C49.708,0.348 48.878,-0.002 48.012,0L48.012,0ZM15.91,19.105C15.077,19.132 14.288,19.481 13.709,20.08L0.937,32.865L0.937,32.865C0.337,33.465 0,34.279 0,35.128C0,35.977 0.337,36.791 0.937,37.391L13.709,50.175L13.709,50.176C14.518,50.985 15.697,51.302 16.802,51.006C17.908,50.711 18.771,49.848 19.068,48.743C19.365,47.638 19.05,46.459 18.241,45.649L10.94,38.341L35.214,38.341C36.071,38.353 36.898,38.022 37.507,37.42C38.118,36.819 38.461,35.997 38.461,35.14C38.461,34.283 38.118,33.463 37.507,32.861C36.898,32.26 36.071,31.927 35.214,31.94L10.908,31.94L18.241,24.6C18.862,23.997 19.212,23.167 19.212,22.301C19.21,21.435 18.859,20.607 18.237,20.005C17.615,19.402 16.775,19.078 15.91,19.105L15.91,19.105Z"/>
    </g>
</svg>
