<?xml version="1.0" encoding="UTF-8" standalone="no"?>
<!DOCTYPE svg PUBLIC "-//W3C//DTD SVG 1.1//EN" "http://www.w3.org/Graphics/SVG/1.1/DTD/svg11.dtd">
<svg width="100%" height="100%" viewBox="0 0 64 64" version="1.1" xmlns="http://www.w3.org/2000/svg" xmlns:xlink="http://www.w3.org/1999/xlink" xml:space="preserve" xmlns:serif="http://www.serif.com/" style="fill-rule:evenodd;clip-rule:evenodd;stroke-linejoin:round;stroke-miterlimit:2;">
    <g id="etherscan-logo-circle" transform="matrix(0.399999,0,0,0.399999,0.000149664,0.0115256)">
        <circle cx="80" cy="80" r="78" style="fill:white;"/>
        <path id="Path_1" d="M33.253,76.152L33.253,76.151C33.253,72.431 36.313,69.37 40.033,69.37L40.065,69.37L51.359,69.407C55.084,69.407 58.149,72.472 58.149,76.197L58.149,118.904C59.421,118.527 61.053,118.126 62.84,117.706C65.387,117.107 67.202,114.816 67.202,112.2L67.202,59.225C67.202,55.5 70.268,52.434 73.993,52.434L85.309,52.434C89.034,52.434 92.099,55.499 92.099,59.224L92.099,108.393C92.099,108.393 94.931,107.246 97.692,106.081C99.784,105.196 101.15,103.136 101.152,100.865L101.152,42.247C101.152,38.522 104.217,35.458 107.942,35.458L119.258,35.458C122.983,35.458 126.048,38.523 126.049,42.248L126.049,90.516C135.86,83.406 145.803,74.853 153.694,64.57C156.017,61.541 156.669,57.539 155.428,53.929C144.515,22.125 114.629,0.471 81.007,0.007C36.653,-0.589 -0.004,35.618 0,79.978C-0.043,94.014 3.621,107.816 10.621,119.982C12.588,123.373 16.359,125.327 20.265,124.978C22.406,124.789 25.071,124.523 28.24,124.151C31.081,123.827 33.252,121.397 33.255,118.538L33.255,76.152" style="fill:rgb(33,50,91);fill-rule:nonzero;"/>
        <path id="Path_2" d="M33.006,144.644C46.672,154.586 63.144,159.943 80.043,159.943C123.906,159.943 160,123.85 160,79.987L160,79.974C160,78.132 159.914,76.312 159.791,74.501C130.576,118.072 76.633,138.441 33.006,144.646" style="fill:rgb(151,150,149);fill-rule:nonzero;"/>
    </g>
</svg>
