<?xml version="1.0" encoding="UTF-8" standalone="no"?>
<!DOCTYPE svg PUBLIC "-//W3C//DTD SVG 1.1//EN" "http://www.w3.org/Graphics/SVG/1.1/DTD/svg11.dtd">
<svg width="100%" height="100%" viewBox="0 0 64 64" version="1.1" xmlns="http://www.w3.org/2000/svg" xmlns:xlink="http://www.w3.org/1999/xlink" xml:space="preserve" xmlns:serif="http://www.serif.com/" style="fill-rule:evenodd;clip-rule:evenodd;stroke-linejoin:round;stroke-miterlimit:2;">
    <g transform="matrix(0.146522,0,0,0.146522,-19.2838,-9.02612)">
        <path d="M366.8,204.4C366.8,227.595 347.995,246.4 324.8,246.4C301.605,246.4 282.8,227.595 282.8,204.4C282.8,181.205 301.605,162.4 324.8,162.4C347.995,162.4 366.8,181.205 366.8,204.4Z" style="fill-rule:nonzero;"/>
        <path d="M542.48,158.37L357.68,63.46C352.864,60.983 347.145,60.983 342.332,63.46L157.532,158.37C151.93,161.249 148.411,167.015 148.411,173.315L148.411,386.685C148.411,392.986 151.934,398.751 157.532,401.63L342.332,496.54C347.148,499.017 352.867,499.017 357.68,496.54L542.48,401.63C548.082,398.751 551.601,392.986 551.601,386.685L551.605,173.315C551.605,167.018 548.082,161.249 542.48,158.37L542.48,158.37ZM518.003,285C493.804,265.203 466.714,246.402 450.804,246.402C427.753,246.402 381.605,285.34 354.843,309.828C364.878,317.16 372.175,322.844 374.538,324.707C380.003,329.008 380.94,336.934 376.632,342.391C372.327,347.883 364.405,348.793 358.937,344.493C319.597,313.485 266.457,280.005 249.207,280.005C247.914,280.005 246.426,280.344 244.988,280.587C231.05,283.954 206.285,301.88 182.004,322.423L182.008,183.563L350.008,97.286L518.008,183.563L518.003,285Z" style="fill-rule:nonzero;"/>
    </g>
</svg>
