<?xml version="1.0" encoding="UTF-8" standalone="no"?>
<!DOCTYPE svg PUBLIC "-//W3C//DTD SVG 1.1//EN" "http://www.w3.org/Graphics/SVG/1.1/DTD/svg11.dtd">
<svg width="100%" height="100%" viewBox="0 0 64 64" version="1.1" xmlns="http://www.w3.org/2000/svg" xmlns:xlink="http://www.w3.org/1999/xlink" xml:space="preserve" xmlns:serif="http://www.serif.com/" style="fill-rule:evenodd;clip-rule:evenodd;stroke-linejoin:round;stroke-miterlimit:2;">
    <g transform="matrix(1,0,0,1,-2.79236e-06,-1.39618e-06)">
        <path d="M23.474,0C29.33,-0.01 34.976,2.174 39.301,6.12C43.626,10.067 46.318,15.49 46.844,21.322C47.37,27.153 45.693,32.97 42.144,37.628L63.003,58.485C63.629,59.078 63.988,59.899 64,60.762C64.012,61.624 63.674,62.454 63.064,63.064C62.454,63.674 61.624,64.012 60.762,64C59.9,63.988 59.078,63.629 58.485,63.003L37.626,42.148C31.608,46.71 23.762,48.096 16.544,45.871C9.328,43.645 3.624,38.082 1.22,30.923C-1.184,23.764 0.006,15.885 4.417,9.755C8.828,3.625 15.921,-0.005 23.472,0L23.474,0ZM23.474,40.548C28.003,40.547 32.346,38.748 35.548,35.545C38.75,32.342 40.549,27.999 40.549,23.47C40.549,18.942 38.749,14.598 35.547,11.396C32.344,8.194 28.001,6.395 23.472,6.395C18.944,6.395 14.6,8.195 11.398,11.397C8.196,14.599 6.397,18.942 6.397,23.471C6.402,27.999 8.202,32.34 11.404,35.542C14.606,38.743 18.947,40.543 23.475,40.548L23.474,40.548Z" style="fill-rule:nonzero;"/>
    </g>
</svg>
