<?xml version="1.0" encoding="UTF-8" standalone="no"?>
<!DOCTYPE svg PUBLIC "-//W3C//DTD SVG 1.1//EN" "http://www.w3.org/Graphics/SVG/1.1/DTD/svg11.dtd">
<svg width="100%" height="100%" viewBox="0 0 64 64" version="1.1" xmlns="http://www.w3.org/2000/svg" xmlns:xlink="http://www.w3.org/1999/xlink" xml:space="preserve" xmlns:serif="http://www.serif.com/" style="fill-rule:evenodd;clip-rule:evenodd;stroke-linejoin:round;stroke-miterlimit:2;">
    <g id="Layer1" transform="matrix(1,0,0,1,4.24425,0)">
        <path d="M52.682,9.027L39.141,9.027L39.141,2.829C39.141,1.28 37.861,0 36.312,0L19.2,0C17.651,0 16.371,1.28 16.371,2.829L16.371,9.027L2.829,9.027C1.28,9.027 0,10.307 0,11.857C0,13.406 1.28,14.686 2.829,14.686L52.682,14.686C54.231,14.686 55.512,13.406 55.512,11.857C55.512,10.307 54.299,9.027 52.682,9.027ZM22.029,5.727L33.415,5.727L33.415,9.095L22.029,9.095L22.029,5.727Z" style="fill-rule:nonzero;"/>
        <path d="M6.804,55.781C6.804,60.295 10.51,64 15.023,64L40.488,64C45.002,64 48.707,60.295 48.707,55.781L48.707,18.324L6.804,18.324L6.804,55.781ZM36.177,28.632C36.177,27.554 37.053,26.745 38.063,26.745C39.141,26.745 39.949,27.621 39.949,28.632L39.949,53.693C39.949,54.771 39.074,55.579 38.063,55.579C36.985,55.579 36.177,54.703 36.177,53.693L36.177,28.632ZM25.869,28.632C25.869,27.554 26.745,26.745 27.756,26.745C28.834,26.745 29.642,27.621 29.642,28.632L29.642,53.693C29.642,54.771 28.766,55.579 27.756,55.579C26.678,55.579 25.869,54.703 25.869,53.693L25.869,28.632ZM15.562,28.632C15.562,27.554 16.438,26.745 17.448,26.745C18.526,26.745 19.335,27.621 19.335,28.632L19.335,53.693C19.335,54.771 18.459,55.579 17.448,55.579C16.37,55.579 15.562,54.703 15.562,53.693L15.562,28.632Z" style="fill-rule:nonzero;"/>
    </g>
</svg>
