<?xml version="1.0" encoding="UTF-8" standalone="no"?>
<!DOCTYPE svg PUBLIC "-//W3C//DTD SVG 1.1//EN" "http://www.w3.org/Graphics/SVG/1.1/DTD/svg11.dtd">
<svg width="100%" height="100%" viewBox="0 0 64 64" version="1.1" xmlns="http://www.w3.org/2000/svg" xmlns:xlink="http://www.w3.org/1999/xlink" xml:space="preserve" xmlns:serif="http://www.serif.com/" style="fill-rule:evenodd;clip-rule:evenodd;stroke-linejoin:round;stroke-miterlimit:2;">
    <g transform="matrix(1,0,0,1,5.11565,3.07226e-08)">
        <path d="M24.454,0.211C23.003,0.6 5.624,7.181 4.816,7.644C2.797,8.796 0.868,11.413 0.24,13.851C0.03,14.644 0,16.454 0,28.733C0,44.407 -0.059,43.435 1.137,45.873C1.616,46.86 2.094,47.548 2.738,48.236C3.934,49.462 21.418,62.534 22.659,63.118C24.02,63.761 25.172,64 26.862,64C28.612,64 30.272,63.641 31.469,62.983C32.8,62.265 50.598,48.864 51.226,48.101C52.139,47.01 52.886,45.693 53.35,44.347L53.769,43.136L53.769,14.12L53.35,13.044C52.348,10.456 50.658,8.422 48.594,7.39C47.532,6.837 30.093,0.346 29.195,0.151C28.134,-0.073 25.382,-0.043 24.454,0.211ZM37.287,20.985C38.319,21.404 38.887,22.541 38.663,23.722C38.573,24.216 37.691,25.173 31.364,31.53C26.518,36.376 23.961,38.843 23.557,39.038C22.136,39.696 21.627,39.397 18.128,35.747C15.017,32.502 14.882,32.292 15.256,31.051C15.495,30.258 16.094,29.66 16.916,29.451C18.068,29.137 18.517,29.391 20.715,31.56L22.674,33.489L28.792,27.342C32.172,23.962 35.133,21.105 35.372,20.985C35.956,20.731 36.674,20.731 37.287,20.985Z" style="fill-rule:nonzero;"/>
    </g>
</svg>
