<?xml version="1.0" encoding="UTF-8" standalone="no"?>
<!DOCTYPE svg PUBLIC "-//W3C//DTD SVG 1.1//EN" "http://www.w3.org/Graphics/SVG/1.1/DTD/svg11.dtd">
<svg width="100%" height="100%" viewBox="0 0 64 64" version="1.1" xmlns="http://www.w3.org/2000/svg" xmlns:xlink="http://www.w3.org/1999/xlink" xml:space="preserve" xmlns:serif="http://www.serif.com/" style="fill-rule:evenodd;clip-rule:evenodd;stroke-linejoin:round;stroke-miterlimit:2;">
    <path d="M55.273,17.164C55.273,15.855 54.692,15.419 54.401,15.128L39.855,0.582C39.456,0.183 39.085,0 38.726,0C17.198,0 17.454,0 17.454,0C12.509,0 8.727,3.782 8.727,8.727L8.727,55.273C8.727,60.218 12.508,64 17.454,64L46.545,64C51.49,64 55.272,60.218 55.272,55.273L55.273,17.164ZM40.728,40.728L23.273,40.728C21.527,40.728 20.364,41.891 20.364,43.637C20.364,45.382 21.527,46.546 23.273,46.546L40.728,46.546C42.473,46.546 43.636,45.382 43.636,43.637C43.636,41.891 42.473,40.728 40.728,40.728ZM20.364,32.001C20.364,33.746 21.528,34.91 23.273,34.91L40.728,34.91C42.473,34.91 43.637,33.746 43.637,32.001C43.637,30.255 42.473,29.092 40.728,29.092L23.273,29.092C21.528,29.092 20.364,30.255 20.364,32.001ZM23.273,23.273L29.091,23.273C30.837,23.273 32,22.11 32,20.364C32,18.619 30.837,17.455 29.091,17.455L23.273,17.455C21.527,17.455 20.364,18.619 20.364,20.364C20.364,22.11 21.527,23.273 23.273,23.273ZM45.423,15.528C45.814,15.528 46.167,15.293 46.318,14.931C46.469,14.57 46.388,14.154 46.113,13.875L41.455,9.162C41.178,8.882 40.76,8.797 40.396,8.946C40.032,9.096 39.794,9.45 39.794,9.844L39.794,14.557C39.794,15.093 40.229,15.528 40.765,15.528L45.423,15.528Z"/>
</svg>
