<?xml version="1.0" encoding="UTF-8" standalone="no"?>
<!DOCTYPE svg PUBLIC "-//W3C//DTD SVG 1.1//EN" "http://www.w3.org/Graphics/SVG/1.1/DTD/svg11.dtd">
<svg width="100%" height="100%" viewBox="0 0 64 64" version="1.1" xmlns="http://www.w3.org/2000/svg" xmlns:xlink="http://www.w3.org/1999/xlink" xml:space="preserve" xmlns:serif="http://www.serif.com/" style="fill-rule:evenodd;clip-rule:evenodd;stroke-linejoin:round;stroke-miterlimit:2;">
    <g id="Layer1" transform="matrix(1,0,0,1,0,9)">
        <path d="M30.443,25.142C30.866,25.536 31.422,25.754 32,25.754C32.577,25.754 33.134,25.536 33.557,25.142L59.968,0.624C59.081,0.217 58.118,0.004 57.143,0L6.857,0C5.881,0.004 4.918,0.217 4.032,0.624L30.443,25.142Z" style="fill-rule:nonzero;"/>
        <path d="M36.667,28.501C35.395,29.673 33.729,30.323 32,30.323C30.27,30.323 28.604,29.672 27.332,28.501L0.745,3.812C0.262,4.755 0.007,5.797 0,6.857L0,38.857C0,40.676 0.722,42.419 2.008,43.706C3.294,44.991 5.038,45.714 6.857,45.714L57.143,45.714C58.962,45.714 60.706,44.991 61.992,43.706C63.278,42.419 64,40.676 64,38.857L64,6.857C63.993,5.797 63.738,4.755 63.255,3.812L36.667,28.501Z" style="fill-rule:nonzero;"/>
    </g>
</svg>
