<?xml version="1.0" encoding="UTF-8" standalone="no"?>
<!DOCTYPE svg PUBLIC "-//W3C//DTD SVG 1.1//EN" "http://www.w3.org/Graphics/SVG/1.1/DTD/svg11.dtd">
<svg width="100%" height="100%" viewBox="0 0 65 65" version="1.1" xmlns="http://www.w3.org/2000/svg" xmlns:xlink="http://www.w3.org/1999/xlink" xml:space="preserve" xmlns:serif="http://www.serif.com/" style="fill-rule:evenodd;clip-rule:evenodd;stroke-linejoin:round;stroke-miterlimit:2;">
    <g id="Layer1">
        <path d="M23.47,38.4C24.036,38.4 24.578,38.625 24.978,39.025C25.378,39.425 25.603,39.968 25.603,40.533L25.603,51.2L38.402,51.2L38.402,10.667C38.402,10.24 38.53,9.822 38.769,9.468C39.009,9.114 39.349,8.841 39.746,8.683L50.796,4.267L25.602,4.267L25.602,23.467C25.602,24.229 25.196,24.933 24.536,25.314C23.876,25.695 23.063,25.695 22.403,25.314C21.743,24.933 21.336,24.229 21.336,23.467L21.336,2.133C21.336,1.568 21.561,1.025 21.961,0.625C22.361,0.225 22.904,0 23.469,0L61.867,0C62.114,0 62.36,0.044 62.592,0.128L62.72,0.128L62.997,0.278L63.232,0.491L63.232,0.49C63.396,0.664 63.526,0.867 63.616,1.088L63.616,1.216C63.814,1.487 63.946,1.801 64,2.133L64,53.333C64.001,53.761 63.872,54.178 63.633,54.532C63.393,54.886 63.053,55.159 62.656,55.317L41.324,63.85C41.073,63.95 40.805,64.001 40.535,64C40.109,64.001 39.693,63.875 39.34,63.637C38.753,63.24 38.401,62.576 38.402,61.867L38.402,55.467L23.469,55.467C22.904,55.467 22.361,55.242 21.961,54.842C21.561,54.442 21.336,53.899 21.336,53.333L21.336,40.533C21.336,39.968 21.561,39.425 21.961,39.025C22.361,38.625 22.904,38.4 23.469,38.4L23.47,38.4Z" style="fill-rule:nonzero;"/>
        <g transform="matrix(-0.121787,0,0,0.121787,59.6755,-2.10076)">
            <path d="M486.33,269.32L407.928,174.121C401.44,166.859 391.041,166.168 384.213,171.758C377.385,177.347 376.26,188.645 381.854,195.473L437.682,263.2L226.802,263.2C217.524,263.2 210.001,270.723 210.001,280.001C210.001,289.278 217.524,296.802 226.802,296.802L437.682,296.802L381.854,364.529C376.264,371.353 377.522,382.494 384.213,388.244C391.115,394.173 402.338,392.708 407.928,385.88L486.33,290.681C491.436,283.506 490.998,276.271 486.33,269.329L486.33,269.32Z" style="fill-rule:nonzero;"/>
        </g>
    </g>
</svg>
