<?xml version="1.0" encoding="UTF-8" standalone="no"?>
<!DOCTYPE svg PUBLIC "-//W3C//DTD SVG 1.1//EN" "http://www.w3.org/Graphics/SVG/1.1/DTD/svg11.dtd">
<svg width="100%" height="100%" viewBox="0 0 64 64" version="1.1" xmlns="http://www.w3.org/2000/svg" xmlns:xlink="http://www.w3.org/1999/xlink" xml:space="preserve" xmlns:serif="http://www.serif.com/" style="fill-rule:evenodd;clip-rule:evenodd;stroke-linejoin:round;stroke-miterlimit:2;">
    <g id="Layer1" transform="matrix(1,0,0,1,0,11.432)">
        <path d="M41.141,20.568C41.141,25.617 37.048,29.71 31.999,29.71C26.951,29.71 22.858,25.617 22.858,20.568C22.858,15.52 26.951,11.427 31.999,11.427C37.048,11.427 41.141,15.52 41.141,20.568Z" style="fill-rule:nonzero;"/>
        <path d="M62.874,16.742C58.395,9.861 51.745,4.674 43.981,2.003C36.217,-0.668 27.783,-0.668 20.019,2.003C12.255,4.673 5.605,9.861 1.126,16.742C0.391,17.883 0,19.211 0,20.568C0,21.925 0.391,23.253 1.126,24.394C5.605,31.275 12.255,36.463 20.019,39.133C27.783,41.804 36.217,41.804 43.981,39.133C51.745,36.463 58.395,31.275 62.874,24.394C63.609,23.253 64,21.925 64,20.568C64,19.211 63.609,17.883 62.874,16.742ZM31.999,34.28C28.363,34.28 24.875,32.836 22.304,30.264C19.732,27.693 18.288,24.205 18.288,20.568C18.288,16.932 19.732,13.444 22.304,10.873C24.875,8.301 28.363,6.857 31.999,6.857C35.636,6.857 39.124,8.301 41.695,10.873C44.266,13.444 45.711,16.932 45.711,20.568C45.708,24.204 44.262,27.69 41.691,30.26C39.12,32.831 35.635,34.277 31.999,34.28Z" style="fill-rule:nonzero;"/>
    </g>
</svg>
