<?xml version="1.0" encoding="UTF-8" standalone="no"?>
<!DOCTYPE svg PUBLIC "-//W3C//DTD SVG 1.1//EN" "http://www.w3.org/Graphics/SVG/1.1/DTD/svg11.dtd">
<svg width="100%" height="100%" viewBox="0 0 64 64" version="1.1" xmlns="http://www.w3.org/2000/svg" xmlns:xlink="http://www.w3.org/1999/xlink" xml:space="preserve" xmlns:serif="http://www.serif.com/" style="fill-rule:evenodd;clip-rule:evenodd;stroke-linejoin:round;stroke-miterlimit:2;">
    <g transform="matrix(1,0,0,1,0,0.09175)">
        <path d="M63.803,30.488C63.67,30.234 63.462,30.032 63.234,29.909C63.234,29.909 62.033,29.268 60.837,28.743C60.239,28.477 59.643,28.233 59.197,28.061C58.744,27.89 58.428,27.788 58.428,27.788C57.948,27.624 57.585,27.206 57.485,26.696C57.485,26.696 57.444,26.483 57.383,26.165C57.336,25.843 57.213,25.428 57.089,25.014C56.844,24.185 56.6,23.355 56.6,23.355C56.6,23.355 56.28,22.553 55.958,21.75C55.799,21.348 55.64,20.946 55.478,20.664C55.329,20.376 55.23,20.184 55.23,20.184C54.991,19.723 55.019,19.168 55.294,18.742C55.294,18.742 55.48,18.465 55.728,18.05C55.973,17.638 56.291,17.076 56.596,16.497C57.211,15.342 57.757,14.093 57.757,14.093C57.861,13.854 57.899,13.568 57.846,13.284C57.787,13.006 57.654,12.722 57.456,12.469C57.456,12.469 57.274,12.24 57,11.896C56.721,11.555 56.372,11.082 55.975,10.65C55.158,9.806 54.342,8.963 54.342,8.963C53.905,8.487 53.243,8.339 52.749,8.484C52.749,8.484 51.446,8.873 50.228,9.34C49.016,9.782 47.832,10.378 47.832,10.378C47.376,10.599 46.824,10.558 46.394,10.265C46.394,10.265 45.694,9.752 44.917,9.365C44.156,8.951 43.396,8.537 43.396,8.537C43.396,8.537 42.599,8.199 41.801,7.863C41.014,7.496 40.176,7.267 40.176,7.267C39.677,7.115 39.303,6.708 39.196,6.215C39.196,6.215 38.933,4.922 38.53,3.703C38.145,2.463 37.644,1.205 37.644,1.205C37.453,0.73 36.926,0.305 36.281,0.257C36.281,0.257 35.108,0.143 33.936,0.029C33.349,-0.013 32.76,0.009 32.318,0C31.879,0.001 31.585,0.001 31.585,0.001C31.263,0.002 30.955,0.074 30.7,0.201C30.444,0.335 30.239,0.542 30.116,0.77C30.116,0.77 29.469,1.97 28.937,3.164C28.668,3.762 28.422,4.358 28.247,4.803C28.074,5.255 27.97,5.572 27.97,5.572C27.804,6.05 27.383,6.415 26.871,6.515C26.871,6.515 26.658,6.556 26.338,6.618C26.016,6.666 25.6,6.79 25.183,6.916C24.351,7.163 23.518,7.409 23.518,7.409C23.518,7.409 22.713,7.732 21.906,8.057C21.502,8.215 21.098,8.377 20.816,8.539C20.526,8.689 20.333,8.788 20.333,8.788C19.869,9.028 19.314,9.002 18.888,8.729C18.888,8.729 18.611,8.546 18.195,8.298C17.783,8.057 17.221,7.742 16.641,7.44C15.485,6.831 14.236,6.292 14.236,6.292C13.997,6.19 13.709,6.153 13.425,6.206C13.146,6.266 12.861,6.4 12.607,6.6C12.607,6.6 12.376,6.782 12.028,7.057C11.687,7.337 11.21,7.686 10.776,8.083C9.926,8.9 9.076,9.717 9.076,9.717C8.599,10.156 8.447,10.817 8.591,11.308C8.591,11.308 8.976,12.605 9.439,13.819C9.878,15.026 10.472,16.205 10.472,16.205C10.691,16.658 10.649,17.209 10.352,17.639C10.352,17.639 9.835,18.339 9.444,19.115C9.026,19.875 8.607,20.634 8.607,20.634C8.607,20.634 8.267,21.432 7.926,22.228C7.556,23.014 7.322,23.851 7.322,23.851C7.166,24.347 6.757,24.723 6.263,24.831C6.263,24.831 4.964,25.099 3.74,25.504C2.495,25.893 1.231,26.397 1.231,26.397C0.754,26.588 0.326,27.116 0.277,27.761C0.277,27.761 0.157,28.93 0.038,30.099C-0.006,30.685 0.013,31.273 0.003,31.713C0.001,32.153 0,32.446 0,32.446C0,32.767 0.07,33.073 0.197,33.329C0.33,33.582 0.538,33.785 0.766,33.908C0.766,33.908 1.967,34.549 3.163,35.075C3.761,35.341 4.357,35.585 4.803,35.756C5.256,35.928 5.572,36.03 5.572,36.03C6.052,36.194 6.415,36.611 6.515,37.123C6.515,37.123 6.556,37.334 6.617,37.653C6.663,37.975 6.787,38.39 6.911,38.804C7.155,39.634 7.399,40.464 7.399,40.464C7.399,40.464 7.72,41.267 8.041,42.069C8.2,42.471 8.359,42.872 8.522,43.155C8.67,43.443 8.77,43.635 8.77,43.635C9.007,44.097 8.98,44.651 8.705,45.077C8.705,45.077 8.52,45.354 8.27,45.77C8.027,46.181 7.708,46.742 7.403,47.323C6.789,48.478 6.242,49.726 6.242,49.726C6.138,49.965 6.1,50.252 6.153,50.534C6.212,50.813 6.345,51.097 6.544,51.348C6.544,51.348 6.726,51.578 6.999,51.923C7.279,52.262 7.628,52.736 8.025,53.168C8.841,54.012 9.657,54.856 9.657,54.856C10.094,55.331 10.756,55.48 11.25,55.333C11.25,55.333 12.554,54.945 13.771,54.477C14.983,54.036 16.168,53.44 16.168,53.44C16.624,53.219 17.177,53.259 17.606,53.553C17.606,53.553 18.306,54.065 19.083,54.452C19.844,54.867 20.603,55.281 20.603,55.281C20.603,55.281 21.401,55.617 22.199,55.953C22.986,56.32 23.824,56.549 23.824,56.549C24.322,56.702 24.696,57.108 24.804,57.602C24.804,57.602 25.067,58.895 25.469,60.114C25.854,61.354 26.354,62.612 26.354,62.612C26.545,63.087 27.073,63.512 27.718,63.56C27.718,63.56 28.891,63.674 30.062,63.788C30.649,63.83 31.238,63.809 31.68,63.817C32.121,63.816 32.416,63.816 32.416,63.816C32.738,63.815 33.045,63.744 33.301,63.617C33.557,63.482 33.761,63.275 33.884,63.047C33.884,63.047 34.532,61.847 35.064,60.652C35.333,60.056 35.579,59.46 35.754,59.014C35.927,58.562 36.031,58.246 36.031,58.246C36.197,57.768 36.618,57.402 37.13,57.303C37.13,57.303 37.343,57.261 37.663,57.199C37.986,57.151 38.402,57.027 38.818,56.901C39.65,56.655 40.483,56.408 40.483,56.408C40.483,56.408 41.288,56.085 42.095,55.761C42.5,55.602 42.903,55.441 43.187,55.278C43.476,55.129 43.669,55.029 43.669,55.029C44.132,54.79 44.689,54.816 45.115,55.088C45.115,55.088 45.392,55.272 45.807,55.519C46.219,55.76 46.781,56.075 47.362,56.377C48.518,56.986 49.768,57.525 49.768,57.525C50.005,57.627 50.294,57.664 50.578,57.61C50.856,57.551 51.142,57.417 51.396,57.218C51.396,57.218 51.627,57.036 51.974,56.762C52.315,56.482 52.792,56.132 53.227,55.736C54.076,54.918 54.925,54.101 54.925,54.101C55.404,53.664 55.555,53.003 55.411,52.512C55.411,52.512 55.026,51.214 54.562,50.001C54.124,48.793 53.531,47.614 53.531,47.614C53.311,47.161 53.354,46.61 53.65,46.181C53.65,46.181 54.166,45.481 54.557,44.705C54.976,43.946 55.394,43.186 55.394,43.186C55.394,43.186 55.735,42.389 56.075,41.592C56.446,40.806 56.679,39.97 56.679,39.97C56.835,39.472 57.244,39.098 57.737,38.988C57.737,38.988 59.036,38.721 60.26,38.315C61.505,37.926 62.769,37.422 62.769,37.422C63.246,37.23 63.674,36.703 63.724,36.059C63.724,36.059 63.842,34.889 63.962,33.72C64.006,33.135 63.987,32.547 63.996,32.107C63.999,31.664 64,31.371 64,31.371C64,31.049 63.93,30.744 63.803,30.488ZM50.193,32.942C50.14,33.384 50.093,33.826 50.054,34.262L50.025,34.589L49.955,34.905C49.911,35.115 49.867,35.323 49.824,35.527C49.705,36.356 49.408,37.086 49.227,37.73C49.148,38.056 49.01,38.334 48.901,38.584C48.794,38.836 48.699,39.055 48.622,39.236C48.472,39.598 48.387,39.806 48.387,39.806C48.387,39.806 48.276,40.002 48.082,40.343C47.987,40.515 47.872,40.724 47.74,40.964C47.61,41.204 47.475,41.484 47.267,41.748C46.87,42.288 46.478,42.972 45.898,43.578C45.763,43.738 45.626,43.901 45.487,44.065L45.281,44.316L45.042,44.541C44.722,44.842 44.402,45.151 44.085,45.467C43.752,45.763 43.383,46.019 43.045,46.3C42.87,46.434 42.712,46.586 42.53,46.704C42.348,46.819 42.167,46.933 41.99,47.045C41.631,47.262 41.31,47.515 40.967,47.69C40.624,47.866 40.3,48.032 40.001,48.185C39.852,48.264 39.711,48.34 39.575,48.412C39.431,48.467 39.296,48.52 39.169,48.57C38.915,48.67 38.693,48.76 38.512,48.832C38.149,48.982 37.942,49.068 37.942,49.068C37.942,49.068 37.727,49.129 37.348,49.236C37.16,49.292 36.932,49.359 36.67,49.438C36.539,49.478 36.401,49.521 36.253,49.566C36.103,49.594 35.944,49.622 35.778,49.652C35.449,49.717 35.091,49.788 34.714,49.862C34.337,49.938 33.928,49.939 33.512,49.99C33.303,50.012 33.092,50.035 32.877,50.058C32.662,50.078 32.443,50.058 32.224,50.061C31.785,50.05 31.338,50.078 30.892,50.053C30.45,50.002 30.006,49.958 29.569,49.919L29.242,49.891L28.925,49.822C28.715,49.779 28.507,49.737 28.302,49.694C27.472,49.578 26.741,49.285 26.096,49.107C25.77,49.03 25.491,48.893 25.24,48.785C24.988,48.679 24.769,48.586 24.587,48.51C24.224,48.362 24.017,48.278 24.017,48.278C24.017,48.278 23.821,48.168 23.48,47.976C23.308,47.882 23.099,47.768 22.859,47.638C22.618,47.509 22.337,47.376 22.074,47.169C21.534,46.776 20.849,46.387 20.243,45.811C20.084,45.677 19.921,45.541 19.756,45.404L19.506,45.199L19.281,44.961C18.98,44.643 18.67,44.325 18.356,44.01C18.06,43.679 17.805,43.312 17.524,42.977C17.392,42.803 17.239,42.645 17.122,42.465C17.008,42.283 16.894,42.104 16.782,41.928C16.566,41.57 16.313,41.252 16.139,40.91C15.964,40.569 15.8,40.246 15.646,39.949C15.567,39.801 15.492,39.66 15.42,39.525C15.364,39.383 15.312,39.248 15.262,39.121C15.162,38.868 15.074,38.647 15.002,38.466C14.852,38.105 14.766,37.898 14.766,37.898C14.766,37.898 14.706,37.683 14.6,37.307C14.544,37.12 14.477,36.892 14.4,36.631C14.36,36.501 14.317,36.362 14.273,36.216C14.245,36.066 14.218,35.908 14.188,35.743C14.124,35.414 14.053,35.059 13.981,34.683C13.906,34.307 13.907,33.899 13.856,33.484C13.835,33.277 13.813,33.066 13.791,32.852C13.772,32.637 13.795,32.419 13.791,32.2C13.803,31.762 13.778,31.316 13.805,30.872C13.857,30.43 13.904,29.988 13.944,29.552L13.973,29.227L14.043,28.909C14.088,28.7 14.131,28.492 14.174,28.288C14.294,27.459 14.591,26.73 14.771,26.086C14.85,25.76 14.988,25.481 15.098,25.231C15.205,24.98 15.299,24.76 15.376,24.58C15.526,24.217 15.612,24.009 15.612,24.009C15.612,24.009 15.723,23.814 15.917,23.473C16.011,23.3 16.126,23.092 16.258,22.851C16.388,22.611 16.522,22.331 16.732,22.067C17.128,21.528 17.52,20.844 18.101,20.237C18.235,20.077 18.372,19.914 18.511,19.75L18.718,19.499L18.957,19.275C19.277,18.973 19.597,18.663 19.914,18.348C20.248,18.052 20.616,17.796 20.954,17.515C21.13,17.382 21.288,17.23 21.469,17.113C21.652,16.997 21.833,16.884 22.01,16.772C22.369,16.555 22.69,16.301 23.033,16.127C23.376,15.951 23.7,15.785 23.999,15.632C24.147,15.552 24.289,15.476 24.424,15.404C24.567,15.348 24.703,15.296 24.83,15.246C25.084,15.145 25.306,15.056 25.488,14.983C25.85,14.833 26.058,14.747 26.058,14.747C26.058,14.747 26.274,14.686 26.652,14.579C26.84,14.524 27.068,14.456 27.33,14.378C27.461,14.337 27.6,14.294 27.747,14.25C27.898,14.223 28.056,14.194 28.221,14.164C28.55,14.099 28.908,14.028 29.285,13.954C29.663,13.878 30.071,13.878 30.487,13.825C30.696,13.803 30.907,13.781 31.122,13.758C31.337,13.737 31.556,13.758 31.776,13.755C32.214,13.766 32.662,13.738 33.107,13.763C33.55,13.814 33.993,13.858 34.43,13.897L34.757,13.924L35.074,13.993C35.284,14.036 35.492,14.078 35.698,14.121C36.528,14.237 37.259,14.531 37.904,14.708C38.23,14.785 38.509,14.922 38.76,15.029C39.011,15.136 39.23,15.228 39.412,15.305C39.776,15.452 39.984,15.537 39.984,15.537C39.984,15.537 40.179,15.646 40.522,15.838C40.693,15.932 40.902,16.046 41.143,16.177C41.384,16.306 41.664,16.439 41.927,16.646C42.467,17.039 43.151,17.428 43.757,18.004C43.918,18.137 44.08,18.273 44.245,18.411L44.495,18.616L44.72,18.853C45.02,19.171 45.33,19.489 45.645,19.803C45.94,20.135 46.195,20.501 46.476,20.837C46.609,21.011 46.762,21.168 46.878,21.348C46.993,21.53 47.107,21.709 47.218,21.885C47.435,22.242 47.688,22.561 47.861,22.902C48.037,23.244 48.202,23.566 48.355,23.864C48.434,24.011 48.509,24.153 48.581,24.287C48.635,24.43 48.688,24.564 48.737,24.692C48.838,24.945 48.926,25.165 48.999,25.346C49.148,25.707 49.234,25.914 49.234,25.914C49.234,25.914 49.294,26.128 49.4,26.505C49.455,26.693 49.522,26.92 49.6,27.181C49.639,27.312 49.682,27.45 49.727,27.596C49.753,27.745 49.781,27.904 49.811,28.068C49.875,28.397 49.944,28.752 50.017,29.128C50.092,29.504 50.09,29.912 50.141,30.327C50.163,30.534 50.185,30.745 50.207,30.959C50.226,31.174 50.204,31.392 50.207,31.611C50.195,32.052 50.22,32.499 50.193,32.942Z" style="fill-rule:nonzero;"/>
    </g>
</svg>
