<?xml version="1.0" encoding="UTF-8" standalone="no"?>
<!DOCTYPE svg PUBLIC "-//W3C//DTD SVG 1.1//EN" "http://www.w3.org/Graphics/SVG/1.1/DTD/svg11.dtd">
<svg width="100%" height="100%" viewBox="0 0 64 64" version="1.1" xmlns="http://www.w3.org/2000/svg" xmlns:xlink="http://www.w3.org/1999/xlink" xml:space="preserve" xmlns:serif="http://www.serif.com/" style="fill-rule:evenodd;clip-rule:evenodd;stroke-linejoin:round;stroke-miterlimit:2;">
    <g transform="matrix(3.2,0,0,3.2,0,0)">
        <path d="M10,0C15.519,0 20,4.481 20,10C20,15.519 15.519,20 10,20C4.481,20 0,15.519 0,10C0,4.481 4.481,0 10,0ZM8.5,14.422C8.385,14.457 8.284,14.527 8.212,14.621C8.14,14.716 8.101,14.831 8.1,14.95C8.1,15.096 8.159,15.236 8.264,15.339C8.369,15.442 8.511,15.5 8.66,15.5L11.54,15.5C11.689,15.5 11.831,15.442 11.936,15.339C12.041,15.236 12.1,15.096 12.1,14.95C12.099,14.831 12.06,14.716 11.988,14.621C11.916,14.527 11.815,14.457 11.7,14.422C11.387,14.324 11.004,14.034 11.004,13.209L11.004,7.791C11.004,7.752 10.989,7.715 10.961,7.687C10.933,7.66 10.895,7.644 10.855,7.644L8.66,7.644C8.511,7.644 8.369,7.702 8.264,7.805C8.159,7.909 8.1,8.049 8.1,8.195C8.101,8.313 8.14,8.428 8.212,8.523C8.284,8.618 8.385,8.687 8.5,8.722C8.813,8.821 9.196,9.11 9.196,9.935L9.196,13.209C9.196,14.034 8.813,14.324 8.5,14.422ZM10.1,6.279C10.34,6.279 10.57,6.185 10.74,6.019C10.909,5.852 11.005,5.625 11.005,5.39C11.005,5.154 10.909,4.927 10.74,4.761C10.57,4.594 10.34,4.5 10.1,4.5C9.86,4.5 9.63,4.594 9.461,4.761C9.291,4.927 9.196,5.154 9.196,5.39C9.196,5.625 9.291,5.852 9.461,6.019C9.63,6.185 9.86,6.279 10.1,6.279Z"/>
    </g>
</svg>
