<?xml version="1.0" encoding="UTF-8" standalone="no"?>
<!DOCTYPE svg PUBLIC "-//W3C//DTD SVG 1.1//EN" "http://www.w3.org/Graphics/SVG/1.1/DTD/svg11.dtd">
<svg width="100%" height="100%" viewBox="0 0 64 64" version="1.1" xmlns="http://www.w3.org/2000/svg" xmlns:xlink="http://www.w3.org/1999/xlink" xml:space="preserve" xmlns:serif="http://www.serif.com/" style="fill-rule:evenodd;clip-rule:evenodd;stroke-linejoin:round;stroke-miterlimit:2;">
    <g transform="matrix(1,0,0,1,0,5.2633)">
        <path d="M3.2,15.18L3.2,27.66C1.387,27.234 0,25.527 0,23.5L0,19.234C0,17.313 1.387,15.714 3.2,15.18ZM4.266,11.874L4.266,31.074C4.266,32.247 5.226,33.207 6.4,33.207L28.8,33.207L28.8,9.74L6.4,9.74C5.226,9.74 4.266,10.7 4.266,11.873L4.266,11.874ZM54.72,0.14L30.933,9.313L30.933,33.633L54.72,42.807C56.107,43.34 57.6,42.273 57.6,40.78L57.599,2.166C57.599,0.673 56.106,-0.394 54.72,0.139L54.72,0.14ZM21.333,34.273L12.8,34.273C12.8,41.53 13.754,48.328 14.613,51.767C14.826,52.726 15.68,53.473 16.746,53.473L20.906,53.473C22.293,53.473 23.253,52.194 23.039,50.913C21.826,45.284 21.333,39.892 21.333,34.273L21.333,34.273ZM58.667,11.126L58.667,31.927C61.867,29.58 64,25.846 64,21.58C64,17.207 61.867,13.473 58.667,11.127L58.667,11.126Z" style="fill-rule:nonzero;"/>
    </g>
</svg>
