<?xml version="1.0" encoding="UTF-8" standalone="no"?>
<!DOCTYPE svg PUBLIC "-//W3C//DTD SVG 1.1//EN" "http://www.w3.org/Graphics/SVG/1.1/DTD/svg11.dtd">
<svg width="100%" height="100%" viewBox="0 0 64 64" version="1.1" xmlns="http://www.w3.org/2000/svg" xmlns:xlink="http://www.w3.org/1999/xlink" xml:space="preserve" xmlns:serif="http://www.serif.com/" style="fill-rule:evenodd;clip-rule:evenodd;stroke-linejoin:round;stroke-miterlimit:2;">
    <path d="M32,0C23.513,0 15.374,3.371 9.373,9.373C3.371,15.374 0,23.513 0,32C0,40.487 3.371,48.626 9.373,54.627C15.374,60.629 23.513,64 32,64C40.487,64 48.626,60.629 54.627,54.627C60.629,48.626 64,40.487 64,32C64,23.513 60.629,15.374 54.627,9.373C48.626,3.371 40.487,0 32,0ZM32.64,48.96C31.712,48.978 30.816,48.626 30.149,47.981C29.482,47.336 29.101,46.452 29.088,45.524C29.076,44.596 29.435,43.702 30.085,43.04C30.735,42.378 31.622,42.003 32.55,41.998C33.478,41.992 34.369,42.358 35.026,43.012C35.684,43.667 36.053,44.557 36.051,45.485C36.056,46.397 35.7,47.274 35.062,47.925C34.423,48.576 33.552,48.948 32.64,48.96ZM40.679,27.802C39.566,30.299 37.711,32.393 35.367,33.799C35.055,33.94 34.87,34.265 34.906,34.605L34.906,37.901L29.549,37.901C29.549,37.741 29.51,37.581 29.51,37.415L29.51,32.122C29.478,31.82 29.663,31.536 29.952,31.444C31.796,30.659 33.406,29.414 34.631,27.828C35.276,26.982 35.725,26.002 35.943,24.96C36.148,24.041 35.992,23.078 35.506,22.27C35.019,21.463 34.241,20.875 33.331,20.628C31.002,19.988 28.691,21.101 28.122,23.22C28.039,23.546 27.993,23.86 27.93,24.25L22.464,24.25C22.554,23.448 22.687,22.651 22.861,21.863C23.388,20.005 24.476,18.356 25.978,17.142C27.478,15.927 29.319,15.206 31.245,15.079C33.438,14.878 35.632,15.445 37.452,16.684C39.273,17.923 40.605,19.756 41.222,21.869C41.774,23.847 41.58,25.958 40.679,27.802L40.679,27.802Z" style="fill-rule:nonzero;"/>
</svg>
