<?xml version="1.0" encoding="UTF-8" standalone="no"?>
<!DOCTYPE svg PUBLIC "-//W3C//DTD SVG 1.1//EN" "http://www.w3.org/Graphics/SVG/1.1/DTD/svg11.dtd">
<svg width="100%" height="100%" viewBox="0 0 64 64" version="1.1" xmlns="http://www.w3.org/2000/svg" xmlns:xlink="http://www.w3.org/1999/xlink" xml:space="preserve" xmlns:serif="http://www.serif.com/" style="fill-rule:evenodd;clip-rule:evenodd;stroke-linejoin:round;stroke-miterlimit:2;">
    <g transform="matrix(1,0,0,1,6,2.5e-07)">
        <path d="M50.944,0.237C51.594,0.585 52,1.263 52,2L52,62C52,62.749 51.581,63.436 50.915,63.779C50.249,64.121 49.447,64.063 48.838,63.627L44,60.172L39.163,63.627C38.467,64.124 37.533,64.124 36.838,63.627L32,60.172L27.163,63.627C26.467,64.124 25.533,64.124 24.837,63.627L20,60.172L15.163,63.627C14.467,64.124 13.533,64.124 12.838,63.627L8,60.172L3.163,63.627C2.553,64.063 1.751,64.121 1.085,63.779C0.419,63.436 0,62.749 0,62L0,2C0,1.263 0.406,0.585 1.056,0.237C1.707,-0.111 2.496,-0.073 3.109,0.336L8,3.597L12.891,0.336C13.563,-0.112 14.438,-0.112 15.109,0.336L20,3.597L24.891,0.336C25.563,-0.112 26.438,-0.112 27.109,0.336L32,3.597L36.891,0.336C37.563,-0.112 38.438,-0.112 39.109,0.336L44,3.597L48.891,0.336C49.504,-0.073 50.293,-0.111 50.944,0.237ZM12,18C10.895,18 10,18.896 10,20C10,21.105 10.895,22 12,22L40,22C41.104,22 42,21.105 42,20C42,18.896 41.104,18 40,18L12,18ZM10,32C10,30.896 10.895,30 12,30L40,30C41.104,30 42,30.896 42,32C42,33.105 41.104,34 40,34L12,34C10.895,34 10,33.105 10,32ZM16,42C14.895,42 14,42.896 14,44C14,45.105 14.895,46 16,46L36,46C37.104,46 38,45.105 38,44C38,42.896 37.104,42 36,42L16,42Z"/>
    </g>
</svg>
