<?xml version="1.0" encoding="UTF-8" standalone="no"?>
<!DOCTYPE svg PUBLIC "-//W3C//DTD SVG 1.1//EN" "http://www.w3.org/Graphics/SVG/1.1/DTD/svg11.dtd">
<svg width="100%" height="100%" viewBox="0 0 64 64" version="1.1" xmlns="http://www.w3.org/2000/svg" xmlns:xlink="http://www.w3.org/1999/xlink" xml:space="preserve" xmlns:serif="http://www.serif.com/" style="fill-rule:evenodd;clip-rule:evenodd;stroke-linejoin:round;stroke-miterlimit:2;">
    <g transform="matrix(1,0,0,1,0,5.7138)">
        <path d="M42.605,52.481C41.416,52.481 40.41,51.567 40.319,50.378C40.319,49.19 41.233,48.184 42.422,48.093L47.267,48.093C51.198,48.093 54.399,44.984 54.399,41.053L54.399,30.722L46.719,30.722L46.719,33.648C46.719,37.305 43.793,40.231 40.137,40.231L24.045,40.23C20.388,40.23 17.462,37.304 17.462,33.647L17.462,30.721L9.782,30.721L9.782,41.144C9.874,45.075 12.983,48.184 16.914,48.184L21.668,48.184C22.857,48.184 23.863,49.099 23.954,50.287C23.954,51.475 23.039,52.481 21.851,52.572L16.914,52.572C10.605,52.572 5.394,47.544 5.302,41.235L5.303,30.722L2.194,30.722C1.006,30.722 0,29.716 0,28.527C0,27.339 1.006,26.333 2.194,26.333L61.806,26.333C62.994,26.333 64,27.339 64,28.527C64,29.716 62.994,30.722 61.806,30.722L58.697,30.722L58.697,41.053C58.606,47.362 53.394,52.482 47.086,52.391L42.605,52.481ZM18.193,21.944C17.736,21.944 17.462,21.579 17.371,21.121L17.371,17.465C17.371,13.808 20.297,10.882 23.953,10.882L40.045,10.882C43.701,10.882 46.627,13.808 46.627,17.465L46.627,21.121C46.627,21.579 46.262,21.853 45.805,21.944L18.193,21.944ZM54.399,16.824L54.399,11.43C54.399,7.499 51.107,4.39 47.267,4.39L42.605,4.39C41.416,4.39 40.41,3.476 40.41,2.196C40.41,1.007 41.416,0.001 42.605,0.001L47.267,0.001C53.576,-0.09 58.787,5.03 58.879,11.338L58.879,16.733C58.879,17.921 57.873,18.927 56.685,18.927C55.405,19.019 54.399,18.104 54.399,16.824ZM5.393,16.824L5.393,11.43C5.485,5.122 10.605,0.002 17.005,0.093L21.759,0.093C22.948,0.093 23.954,1.099 23.954,2.287C23.954,3.476 22.948,4.482 21.759,4.482L17.005,4.482C13.074,4.482 9.873,7.59 9.873,11.522L9.873,16.916C9.873,18.105 8.868,19.11 7.679,19.11C6.307,19.019 5.302,18.104 5.393,16.824Z" style="fill-rule:nonzero;"/>
    </g>
</svg>
