<?xml version="1.0" encoding="UTF-8" standalone="no"?>
<!DOCTYPE svg PUBLIC "-//W3C//DTD SVG 1.1//EN" "http://www.w3.org/Graphics/SVG/1.1/DTD/svg11.dtd">
<svg width="100%" height="100%" viewBox="0 0 64 64" version="1.1" xmlns="http://www.w3.org/2000/svg" xmlns:xlink="http://www.w3.org/1999/xlink" xml:space="preserve" xmlns:serif="http://www.serif.com/" style="fill-rule:evenodd;clip-rule:evenodd;stroke-linejoin:round;stroke-miterlimit:2;">
    <g transform="matrix(1,0,0,1,6.40001,-1.21849e-09)">
        <path d="M33.227,45.541C35.194,43.699 37.785,42.669 40.478,42.66C43.571,42.669 46.508,44.019 48.527,46.361C50.546,48.704 51.451,51.809 51.004,54.869C50.559,57.93 48.806,60.648 46.202,62.316C43.598,63.983 40.399,64.439 37.433,63.564C34.466,62.688 32.027,60.568 30.745,57.753C29.463,54.938 29.466,51.706 30.752,48.892L17.954,39.694C15.919,41.601 13.218,42.634 10.431,42.572C7.643,42.512 4.991,41.361 3.041,39.366C1.091,37.373 0,34.694 0,31.906C0,29.116 1.091,26.438 3.041,24.444C4.991,22.45 7.643,21.299 10.431,21.238C13.218,21.177 15.918,22.211 17.954,24.117L30.752,14.92C29.337,11.659 29.638,7.907 31.555,4.913C33.472,1.92 36.753,0.079 40.306,0.002C43.859,-0.074 47.216,1.625 49.259,4.533C51.303,7.441 51.765,11.177 50.491,14.495C49.217,17.814 46.374,20.28 42.91,21.071C39.445,21.863 35.814,20.876 33.227,18.441L20.429,27.659C21.68,30.411 21.68,33.57 20.429,36.323L33.227,45.541ZM10.667,38.4C14.201,38.4 17.067,35.535 17.067,32C17.067,28.465 14.201,25.6 10.667,25.6C7.132,25.6 4.267,28.465 4.267,32C4.267,35.535 7.132,38.4 10.667,38.4ZM46.933,53.333C46.933,56.868 44.068,59.733 40.533,59.733C36.999,59.733 34.133,56.868 34.133,53.333C34.133,49.799 36.999,46.933 40.533,46.933C44.068,46.933 46.933,49.799 46.933,53.333ZM40.533,17.067C44.068,17.067 46.933,14.201 46.933,10.667C46.933,7.132 44.068,4.267 40.533,4.267C36.999,4.267 34.133,7.132 34.133,10.667C34.133,14.201 36.999,17.067 40.533,17.067Z"/>
    </g>
</svg>
