<?xml version="1.0" encoding="UTF-8" standalone="no"?>
<!DOCTYPE svg PUBLIC "-//W3C//DTD SVG 1.1//EN" "http://www.w3.org/Graphics/SVG/1.1/DTD/svg11.dtd">
<svg width="100%" height="100%" viewBox="0 0 64 64" version="1.1" xmlns="http://www.w3.org/2000/svg" xmlns:xlink="http://www.w3.org/1999/xlink" xml:space="preserve" xmlns:serif="http://www.serif.com/" style="fill-rule:evenodd;clip-rule:evenodd;stroke-linejoin:round;stroke-miterlimit:2;">
    <g transform="matrix(1.33333,0,0,1.33333,0,10.7963)">
        <path d="M47.785,16.231L40.706,1.466C40.251,0.556 39.34,0 38.379,0L9.658,0C8.647,0 7.737,0.556 7.332,1.466L0.253,16.231C0.101,16.586 0,16.99 0,17.344L0,29.227C0,30.643 1.163,31.805 2.579,31.805L45.408,31.805C46.824,31.805 47.987,30.643 47.987,29.227L47.987,17.344C48.037,16.99 47.936,16.586 47.785,16.231ZM30.643,14.512C29.682,14.512 28.772,15.119 28.469,16.029C27.862,17.9 26.092,19.266 23.968,19.266C21.845,19.266 20.125,17.9 19.468,16.029C19.165,15.119 18.254,14.512 17.294,14.512L6.776,14.512L11.226,5.208L36.661,5.208L41.11,14.512C41.161,14.462 34.132,14.462 30.642,14.512L30.643,14.512Z" style="fill-rule:nonzero;"/>
    </g>
</svg>
