<?xml version="1.0" encoding="UTF-8" standalone="no"?>
<!DOCTYPE svg PUBLIC "-//W3C//DTD SVG 1.1//EN" "http://www.w3.org/Graphics/SVG/1.1/DTD/svg11.dtd">
<svg width="100%" height="100%" viewBox="0 0 20 20" version="1.1" xmlns="http://www.w3.org/2000/svg" xmlns:xlink="http://www.w3.org/1999/xlink" xml:space="preserve" xmlns:serif="http://www.serif.com/" style="fill-rule:evenodd;clip-rule:evenodd;stroke-linejoin:round;stroke-miterlimit:2;">
    <path d="M10,0C15.519,0 20,4.481 20,10C20,15.519 15.519,20 10,20C4.481,20 0,15.519 0,10C0,4.481 4.481,0 10,0ZM8.17,15.275C12.605,15.275 15.03,11.6 15.03,8.415C15.03,8.31 15.03,8.205 15.025,8.105C15.495,7.765 15.905,7.34 16.23,6.855C15.8,7.045 15.335,7.175 14.845,7.235C15.345,6.935 15.725,6.465 15.905,5.9C15.44,6.175 14.925,6.375 14.375,6.485C13.935,6.015 13.31,5.725 12.615,5.725C11.285,5.725 10.205,6.805 10.205,8.135C10.205,8.325 10.225,8.51 10.27,8.685C8.265,8.585 6.49,7.625 5.3,6.165C5.095,6.52 4.975,6.935 4.975,7.375C4.975,8.21 5.4,8.95 6.05,9.38C5.655,9.37 5.285,9.26 4.96,9.08L4.96,9.11C4.96,10.28 5.79,11.25 6.895,11.475C6.695,11.53 6.48,11.56 6.26,11.56C6.105,11.56 5.955,11.545 5.805,11.515C6.11,12.475 7,13.17 8.055,13.19C7.23,13.835 6.19,14.22 5.06,14.22C4.865,14.22 4.675,14.21 4.485,14.185C5.54,14.875 6.81,15.275 8.17,15.275Z"/>
</svg>
