<?xml version="1.0" encoding="UTF-8" standalone="no"?>
<!DOCTYPE svg PUBLIC "-//W3C//DTD SVG 1.1//EN" "http://www.w3.org/Graphics/SVG/1.1/DTD/svg11.dtd">
<svg width="100%" height="100%" viewBox="0 0 65 64" version="1.1" xmlns="http://www.w3.org/2000/svg" xmlns:xlink="http://www.w3.org/1999/xlink" xml:space="preserve" xmlns:serif="http://www.serif.com/" style="fill-rule:evenodd;clip-rule:evenodd;stroke-linejoin:round;stroke-miterlimit:2;">
    <g transform="matrix(0.9375,0,0,0.9375,2.00001,5.75001)">
        <path d="M63.31,48.38L36.45,2.554C35.531,0.991 33.827,0 31.989,0C30.15,0 28.446,0.969 27.527,2.532L0.689,48.337C-0.23,49.9 -0.23,51.86 0.689,53.423C1.609,55.009 3.29,56 5.151,56L58.849,56C60.688,56 62.391,55.009 63.311,53.446C64.23,51.882 64.23,49.944 63.311,48.381L63.31,48.38ZM29.298,17.286C29.298,15.877 30.441,14.754 31.876,14.754C33.311,14.754 34.454,15.877 34.454,17.286L34.454,34.682C34.454,36.092 33.311,37.215 31.876,37.215C30.441,37.215 29.298,36.092 29.298,34.682L29.298,17.286ZM31.988,47.676C30.127,47.676 28.625,46.2 28.625,44.372C28.625,42.545 30.127,41.069 31.988,41.069C33.849,41.069 35.351,42.545 35.351,44.372C35.351,46.2 33.849,47.676 31.988,47.676Z" style="fill-rule:nonzero;"/>
    </g>
</svg>
