<?xml version="1.0" encoding="UTF-8" standalone="no"?>
<!DOCTYPE svg PUBLIC "-//W3C//DTD SVG 1.1//EN" "http://www.w3.org/Graphics/SVG/1.1/DTD/svg11.dtd">
<svg width="100%" height="100%" viewBox="0 0 64 64" version="1.1" xmlns="http://www.w3.org/2000/svg" xmlns:xlink="http://www.w3.org/1999/xlink" xml:space="preserve" xmlns:serif="http://www.serif.com/" style="fill-rule:evenodd;clip-rule:evenodd;stroke-linejoin:round;stroke-miterlimit:2;">
    <g id="Layer1" transform="matrix(1,0,0,1,0,-1.25e-06)">
        <path d="M0.149,56.144C0.149,60.442 3.707,64 8.005,64L48.324,64C52.623,64 56.18,60.442 56.18,56.144L56.181,35.984L50.4,35.984L50.4,56.144C50.4,57.182 49.51,58.071 48.473,58.071L7.856,58.071C6.818,58.071 5.929,57.181 5.929,56.143L5.929,15.825C5.929,14.787 6.819,13.898 7.857,13.898L28.017,13.898L28.016,8.117L7.856,8.117C3.558,8.117 0,11.675 0,15.973L0,56.144L0.149,56.144Z" style="fill-rule:nonzero;"/>
        <path d="M62.555,11.377C64.482,9.45 64.482,6.485 62.555,4.558L59.442,1.445C57.515,-0.482 54.55,-0.482 52.623,1.445L24.459,29.61L21.495,42.506L34.391,39.542L62.555,11.377Z" style="fill-rule:nonzero;"/>
    </g>
</svg>
